<svg xmlns="http://www.w3.org/2000/svg" width="1536" height="432" viewBox="0 0 1536 432" shape-rendering="crispEdges">
  <defs>
    <linearGradient id="sky" x1="0" y1="0" x2="0" y2="1"><stop offset="0" stop-color="#20262a"/><stop offset=".38" stop-color="#151719"/><stop offset="1" stop-color="#060606"/></linearGradient>
    <pattern id="rain" width="6" height="18" patternUnits="userSpaceOnUse"><rect x="2" y="0" width="1" height="9" fill="#d7b35d" opacity=".12"/><rect x="5" y="10" width="1" height="6" fill="#9d7a3a" opacity=".08"/></pattern>
    <pattern id="grime" width="128" height="72" patternUnits="userSpaceOnUse"><rect x="12" y="13" width="42" height="2" fill="#8d642f" opacity=".24"/><rect x="80" y="25" width="1" height="22" fill="#70562b" opacity=".28"/><rect x="36" y="54" width="28" height="2" fill="#1d1811" opacity=".52"/><rect x="101" y="58" width="3" height="3" fill="#d7b35d" opacity=".18"/></pattern>
    <g id="megaArch">
      <path d="M-20 236 Q256 4 532 236" fill="none" stroke="#6d6347" stroke-width="7"/>
      <path d="M38 236 Q256 54 474 236" fill="none" stroke="#312e27" stroke-width="5"/>
      <path d="M100 236 Q256 102 412 236" fill="none" stroke="#0f1110" stroke-width="4"/>
      <path d="M0 236 L512 236" stroke="#070707" stroke-width="10"/>
      <path d="M36 232 L204 72" stroke="#3f3929" stroke-width="3"/>
      <path d="M476 232 L308 72" stroke="#3f3929" stroke-width="3"/>
      <path d="M86 232 L256 28 L426 232" fill="none" stroke="#51472e" stroke-width="2"/>
      <rect x="124" y="128" width="264" height="7" fill="#0d0d0b"/>
      <rect x="156" y="96" width="200" height="44" fill="#211a12"/>
      <rect x="164" y="104" width="184" height="25" fill="#8d6a32"/>
      <rect x="174" y="111" width="37" height="5" fill="#1b1f1d"/><rect x="224" y="111" width="52" height="5" fill="#1b1f1d"/><rect x="292" y="111" width="44" height="5" fill="#1b1f1d"/>
      <rect x="255" y="52" width="4" height="44" fill="#4e432d"/>
      <rect x="246" y="84" width="22" height="8" fill="#d7b35d" opacity=".7"/>
    </g>
    <g id="city"><rect x="0" y="172" width="52" height="72" fill="#090b0b"/><rect x="9" y="150" width="35" height="22" fill="#0b0d0d"/><rect x="70" y="142" width="66" height="102" fill="#0a0b0b"/><rect x="148" y="184" width="46" height="60" fill="#080909"/><rect x="218" y="128" width="78" height="116" fill="#090a0a"/><rect x="320" y="164" width="42" height="80" fill="#080909"/><rect x="382" y="135" width="88" height="109" fill="#0a0b0b"/><rect x="24" y="185" width="5" height="2" fill="#80642f"/><rect x="94" y="162" width="6" height="2" fill="#80642f"/><rect x="245" y="150" width="5" height="2" fill="#80642f"/><rect x="410" y="154" width="7" height="2" fill="#80642f"/></g>
    <g id="midPlatform"><rect y="244" width="384" height="36" fill="#0a0908"/><rect y="237" width="384" height="8" fill="#322517"/><rect x="22" y="248" width="118" height="5" fill="#5b4322"/><rect x="178" y="254" width="154" height="3" fill="#3c2b17"/><rect x="68" y="262" width="10" height="74" fill="#080706"/><rect x="220" y="262" width="10" height="74" fill="#080706"/><rect x="332" y="262" width="10" height="74" fill="#080706"/><rect x="92" y="274" width="46" height="8" fill="#1b120b"/><rect x="248" y="268" width="64" height="10" fill="#19120c"/></g>
  </defs>
  <rect width="1536" height="432" fill="url(#sky)"/>
  <use href="#city" x="0" opacity=".62"/><use href="#city" x="480" opacity=".56"/><use href="#city" x="960" opacity=".62"/>
  <rect y="0" width="1536" height="432" fill="url(#rain)"/>
  <rect y="38" width="1536" height="6" fill="#33362f"/><rect y="78" width="1536" height="3" fill="#655737"/><rect y="156" width="1536" height="5" fill="#161816"/><rect y="230" width="1536" height="10" fill="#050505"/>
  <use href="#megaArch" x="-128"/><use href="#megaArch" x="384"/><use href="#megaArch" x="896"/><use href="#megaArch" x="1408"/>
  <rect x="602" y="80" width="332" height="74" fill="#080706" opacity=".92"/><rect x="612" y="90" width="312" height="54" fill="#2d2215"/><rect x="626" y="104" width="96" height="8" fill="#d7b35d"/><rect x="742" y="104" width="72" height="8" fill="#8d642f"/><rect x="836" y="104" width="58" height="8" fill="#d7b35d"/><rect x="632" y="123" width="244" height="4" fill="#111410"/><rect x="768" y="154" width="3" height="58" fill="#453925"/>
  <use href="#midPlatform" x="0"/><use href="#midPlatform" x="384"/><use href="#midPlatform" x="768"/><use href="#midPlatform" x="1152"/>
  <rect y="280" width="1536" height="42" fill="#050403" opacity=".55"/>
  <rect y="316" width="1536" height="40" fill="#000" opacity=".34"/>
  <g opacity=".46"><rect x="124" y="201" width="42" height="3" fill="#d7b35d"/><rect x="490" y="212" width="30" height="2" fill="#9d7a3a"/><rect x="748" y="194" width="56" height="3" fill="#d7b35d"/><rect x="1116" y="207" width="38" height="2" fill="#9d7a3a"/><rect x="1352" y="196" width="64" height="3" fill="#d7b35d"/></g>
  <rect width="1536" height="356" fill="url(#grime)"/>
  <rect y="0" width="1536" height="432" fill="#000" opacity=".05"/>
</svg>
