<svg xmlns="http://www.w3.org/2000/svg" width="1536" height="432" viewBox="0 0 1536 432" shape-rendering="crispEdges">
  <defs>
    <linearGradient id="sky" x1="0" y1="0" x2="0" y2="1"><stop offset="0" stop-color="#20262a"/><stop offset=".42" stop-color="#151719"/><stop offset="1" stop-color="#090909"/></linearGradient>
    <pattern id="scan" width="1" height="6" patternUnits="userSpaceOnUse"><rect width="1" height="1" fill="#000" opacity=".16"/></pattern>
    <pattern id="rust" width="96" height="64" patternUnits="userSpaceOnUse"><rect x="8" y="9" width="18" height="1" fill="#70562b" opacity=".35"/><rect x="45" y="27" width="1" height="12" fill="#6b5531" opacity=".32"/><rect x="69" y="42" width="12" height="2" fill="#2a251d" opacity=".45"/><rect x="20" y="52" width="2" height="2" fill="#a98745" opacity=".35"/></pattern>
    <g id="bay">
      <path d="M-20 222 L192 38 L402 222" fill="none" stroke="#72684c" stroke-width="4"/>
      <path d="M36 220 Q192 82 348 220" fill="none" stroke="#5c5541" stroke-width="3"/>
      <path d="M70 220 Q192 112 314 220" fill="none" stroke="#30332e" stroke-width="2"/>
      <path d="M28 226 L352 226" stroke="#10100f" stroke-width="5"/>
      <rect x="144" y="58" width="112" height="30" fill="#302b20"/>
      <rect x="152" y="65" width="96" height="11" fill="#857149"/>
      <rect x="159" y="68" width="82" height="5" fill="#263231"/>
      <rect x="199" y="40" width="3" height="18" fill="#504735"/>
      <rect x="58" y="126" width="7" height="232" fill="#161410"/>
      <rect x="65" y="126" width="8" height="232" fill="#060605"/>
      <rect x="53" y="223" width="25" height="5" fill="#4e3d24"/>
      <rect x="50" y="347" width="31" height="8" fill="#2b2115"/>
      <rect x="318" y="126" width="7" height="232" fill="#161410"/>
      <rect x="325" y="126" width="8" height="232" fill="#060605"/>
      <rect x="313" y="223" width="25" height="5" fill="#4e3d24"/>
      <rect x="310" y="347" width="31" height="8" fill="#2b2115"/>
      <rect x="18" y="262" width="128" height="7" fill="#231b14"/>
      <rect x="36" y="270" width="96" height="7" fill="#0f0d0b"/>
      <rect x="61" y="277" width="9" height="52" fill="#15100c"/>
      <rect x="96" y="277" width="9" height="43" fill="#1d140d"/>
      <rect x="148" y="265" width="45" height="5" fill="#6a5128"/>
      <rect x="154" y="271" width="36" height="3" fill="#c69c4a"/>
      <path d="M-10 247 L82 184" stroke="#4e412a" stroke-width="2"/>
      <path d="M115 247 L30 162" stroke="#282b29" stroke-width="2"/>
      <rect x="42" y="232" width="24" height="1" fill="#8b6e38" opacity=".55"/>
      <rect x="64" y="220" width="24" height="1" fill="#8b6e38" opacity=".55"/>
      <rect x="118" y="170" width="46" height="5" fill="#5b4523"/>
      <rect x="122" y="176" width="38" height="2" fill="#c69c4a" opacity=".55"/>
      <rect x="210" y="274" width="61" height="17" fill="#18110b"/>
      <rect x="218" y="278" width="43" height="3" fill="#704b25"/>
      <rect x="274" y="258" width="5" height="48" fill="#090807"/>
    </g>
    <g id="wallBlock"><rect y="214" width="116" height="36" fill="#1b150f"/><rect x="8" y="219" width="50" height="3" fill="#4b3a22"/><rect x="66" y="232" width="42" height="2" fill="#5c4726"/><rect x="14" y="240" width="7" height="2" fill="#2d2920"/><rect x="26" y="240" width="7" height="2" fill="#2d2920"/><rect x="38" y="240" width="7" height="2" fill="#2d2920"/></g>
  </defs>
  <rect width="1536" height="432" fill="url(#sky)"/>
  <rect y="38" width="1536" height="3" fill="#323631"/><rect y="75" width="1536" height="2" fill="#60563a"/><rect y="108" width="1536" height="4" fill="#242725"/><rect y="144" width="1536" height="4" fill="#1b1d1b"/><rect y="180" width="1536" height="3" fill="#302b20"/><rect y="204" width="1536" height="9" fill="#11100e"/><rect y="243" width="1536" height="7" fill="#070706"/>
  <rect y="208" width="1536" height="49" fill="#11110f"/>
  <use href="#bay" x="-192"/><use href="#bay" x="192"/><use href="#bay" x="576"/><use href="#bay" x="960"/><use href="#bay" x="1344"/>
  <g opacity=".92"><use href="#wallBlock" x="0"/><use href="#wallBlock" x="128"/><use href="#wallBlock" x="256"/><use href="#wallBlock" x="384"/><use href="#wallBlock" x="512"/><use href="#wallBlock" x="640"/><use href="#wallBlock" x="768"/><use href="#wallBlock" x="896"/><use href="#wallBlock" x="1024"/><use href="#wallBlock" x="1152"/><use href="#wallBlock" x="1280"/><use href="#wallBlock" x="1408"/></g>
  <rect y="260" width="1536" height="48" fill="#080807" opacity=".68"/>
  <rect y="289" width="1536" height="16" fill="#090806"/>
  <rect x="0" y="315" width="1536" height="5" fill="#000" opacity=".08"/><rect x="0" y="320" width="1536" height="5" fill="#000" opacity=".11"/><rect x="0" y="325" width="1536" height="5" fill="#000" opacity=".14"/><rect x="0" y="330" width="1536" height="5" fill="#000" opacity=".18"/><rect x="0" y="335" width="1536" height="5" fill="#000" opacity=".22"/><rect x="0" y="340" width="1536" height="16" fill="#000" opacity=".34"/>
  <rect width="1536" height="356" fill="url(#rust)"/>
  <rect width="1536" height="432" fill="url(#scan)"/>
</svg>
