<svg xmlns="http://www.w3.org/2000/svg" width="936" height="132" viewBox="0 0 936 132" shape-rendering="crispEdges">
  <defs>
    <g id="rivetLine"><rect x="18" y="28" width="2" height="2" fill="#d7b35d" opacity=".54"/><rect x="42" y="29" width="2" height="2" fill="#d7b35d" opacity=".42"/><rect x="66" y="28" width="2" height="2" fill="#d7b35d" opacity=".54"/><rect x="90" y="29" width="2" height="2" fill="#d7b35d" opacity=".42"/><rect x="114" y="28" width="2" height="2" fill="#d7b35d" opacity=".54"/><rect x="138" y="29" width="2" height="2" fill="#d7b35d" opacity=".42"/><rect x="162" y="28" width="2" height="2" fill="#d7b35d" opacity=".54"/><rect x="186" y="29" width="2" height="2" fill="#d7b35d" opacity=".42"/><rect x="210" y="28" width="2" height="2" fill="#d7b35d" opacity=".54"/><rect x="234" y="29" width="2" height="2" fill="#d7b35d" opacity=".42"/><rect x="258" y="28" width="2" height="2" fill="#d7b35d" opacity=".54"/></g>
    <g id="windowSet"><rect x="0" y="0" width="44" height="42" fill="#050403"/><rect x="7" y="7" width="29" height="17" fill="#d7b35d"/><rect x="11" y="10" width="20" height="9" fill="#3b2816"/><rect x="7" y="29" width="30" height="3" fill="#8d642f"/></g>
    <g id="carA"><polygon points="0,20 304,14 304,120 0,124" fill="#2f1d10"/><polygon points="0,20 304,14 304,39 0,45" fill="#553016"/><rect y="98" width="304" height="26" fill="#080604"/><rect x="292" y="13" width="12" height="111" fill="#040302"/><rect x="283" y="22" width="5" height="96" fill="#a27635"/><use href="#windowSet" x="34" y="50"/><use href="#windowSet" x="226" y="51"/><rect x="108" y="47" width="90" height="6" fill="#c49b45"/><rect x="116" y="65" width="74" height="3" fill="#7c5726"/><rect x="124" y="83" width="54" height="3" fill="#7c5726"/><rect x="16" y="112" width="72" height="5" fill="#3a2613"/><rect x="114" y="112" width="76" height="5" fill="#3a2613"/><rect x="216" y="112" width="68" height="5" fill="#3a2613"/><rect x="22" y="40" width="34" height="2" fill="#d7b35d" opacity=".28"/><rect x="74" y="72" width="38" height="2" fill="#8d642f" opacity=".42"/><rect x="204" y="88" width="42" height="2" fill="#d7b35d" opacity=".22"/><use href="#rivetLine"/></g>
    <g id="carB"><polygon points="0,20 304,14 304,120 0,124" fill="#352010"/><polygon points="0,21 304,15 304,41 0,47" fill="#5d3618"/><rect y="98" width="304" height="26" fill="#080604"/><rect x="292" y="13" width="12" height="111" fill="#040302"/><rect x="283" y="22" width="5" height="96" fill="#a27635"/><rect x="24" y="48" width="64" height="39" fill="#120c07"/><rect x="33" y="56" width="42" height="12" fill="#d7b35d"/><rect x="39" y="59" width="28" height="7" fill="#3b2816"/><rect x="104" y="49" width="42" height="50" fill="#22150c"/><rect x="158" y="49" width="96" height="5" fill="#c49b45"/><rect x="160" y="68" width="72" height="3" fill="#7c5726"/><rect x="176" y="88" width="60" height="3" fill="#7c5726"/><rect x="18" y="112" width="70" height="5" fill="#3a2613"/><rect x="112" y="112" width="92" height="5" fill="#3a2613"/><rect x="232" y="112" width="52" height="5" fill="#3a2613"/><rect x="32" y="37" width="24" height="2" fill="#d7b35d" opacity=".28"/><rect x="210" y="76" width="44" height="2" fill="#8d642f" opacity=".42"/><use href="#rivetLine"/></g>
  </defs>
  <rect width="936" height="132" fill="none"/>
  <rect y="11" width="936" height="116" fill="#040302" opacity=".9"/>
  <polygon points="0,18 936,10 936,126 0,128" fill="#21140b"/>
  <polygon points="0,21 936,13 936,44 0,52" fill="#4c2b13"/>
  <rect y="98" width="936" height="29" fill="#070504"/>
  <rect y="31" width="936" height="3" fill="#b98c3c"/>
  <rect y="92" width="936" height="4" fill="#8d642f"/>
  <use href="#carA" x="0"/><use href="#carB" x="312"/><use href="#carA" x="624" opacity=".88"/>
  <g opacity=".5"><rect x="80" y="15" width="28" height="5" fill="#2b1d10"/><rect x="85" y="8" width="18" height="8" fill="#6a4b24"/><rect x="400" y="15" width="28" height="5" fill="#2b1d10"/><rect x="405" y="8" width="18" height="8" fill="#6a4b24"/><rect x="706" y="15" width="28" height="5" fill="#2b1d10"/><rect x="711" y="8" width="18" height="8" fill="#6a4b24"/></g>
  <g opacity=".38"><rect x="20" y="51" width="14" height="1" fill="#d7b35d"/><rect x="98" y="64" width="22" height="1" fill="#d7b35d"/><rect x="194" y="78" width="28" height="1" fill="#d7b35d"/><rect x="354" y="54" width="30" height="1" fill="#d7b35d"/><rect x="522" y="83" width="36" height="1" fill="#d7b35d"/><rect x="682" y="57" width="22" height="1" fill="#d7b35d"/><rect x="820" y="89" width="42" height="1" fill="#d7b35d"/></g>
  <g><rect x="20" y="125" width="54" height="4" fill="#5b3d1d"/><rect x="116" y="125" width="54" height="4" fill="#5b3d1d"/><rect x="212" y="125" width="54" height="4" fill="#5b3d1d"/><rect x="308" y="125" width="54" height="4" fill="#5b3d1d"/><rect x="404" y="125" width="54" height="4" fill="#5b3d1d"/><rect x="500" y="125" width="54" height="4" fill="#5b3d1d"/><rect x="596" y="125" width="54" height="4" fill="#5b3d1d"/><rect x="692" y="125" width="54" height="4" fill="#5b3d1d"/><rect x="788" y="125" width="54" height="4" fill="#5b3d1d"/><rect x="884" y="125" width="54" height="4" fill="#5b3d1d"/></g>
</svg>
