<svg xmlns="http://www.w3.org/2000/svg" width="936" height="110" viewBox="0 0 936 110" shape-rendering="crispEdges">
  <rect width="936" height="110" fill="none"/>
  <rect x="0" y="8" width="936" height="96" fill="#050403" opacity="0.72"/>
  <g>
    <rect x="0" y="12" width="304" height="84" fill="#332012"/>
    <rect x="4" y="18" width="296" height="2" fill="#9d7a3a"/>
    <rect x="4" y="78" width="296" height="2" fill="#9d7a3a"/>
    <rect x="300" y="8" width="8" height="98" fill="#050403"/>
    <rect x="290" y="12" width="4" height="84" fill="#8d642f"/>
    <rect x="36" y="38" width="38" height="50" fill="#050403"/>
    <rect x="42" y="44" width="26" height="18" fill="#d8c28a"/>
    <rect x="48" y="48" width="14" height="10" fill="#5a3920"/>
    <rect x="44" y="70" width="22" height="3" fill="#9d7a3a"/>
    <rect x="108" y="36" width="96" height="4" fill="#9d7a3a"/>
    <rect x="116" y="52" width="72" height="2" fill="#8d642f"/>
    <rect x="130" y="68" width="54" height="2" fill="#8d642f"/>
    <rect x="232" y="38" width="34" height="50" fill="#050403"/>
    <rect x="238" y="44" width="22" height="18" fill="#47301b"/>
    <rect x="240" y="70" width="18" height="3" fill="#9d7a3a"/>
  </g>
  <g transform="translate(312 0)">
    <rect x="0" y="12" width="304" height="84" fill="#3b2514"/>
    <rect x="4" y="18" width="296" height="2" fill="#9d7a3a"/>
    <rect x="4" y="78" width="296" height="2" fill="#9d7a3a"/>
    <rect x="300" y="8" width="8" height="98" fill="#050403"/>
    <rect x="290" y="12" width="4" height="84" fill="#8d642f"/>
    <rect x="24" y="35" width="56" height="34" fill="#15100b"/>
    <rect x="34" y="43" width="34" height="12" fill="#d1b875"/>
    <rect x="112" y="36" width="90" height="4" fill="#d7b35d"/>
    <rect x="126" y="52" width="64" height="3" fill="#8d642f"/>
    <rect x="220" y="38" width="46" height="50" fill="#050403"/>
    <rect x="228" y="46" width="30" height="16" fill="#47301b"/>
  </g>
  <g transform="translate(624 0)">
    <rect x="0" y="12" width="304" height="84" fill="#2a1a0f"/>
    <rect x="4" y="18" width="296" height="2" fill="#9d7a3a"/>
    <rect x="4" y="78" width="296" height="2" fill="#9d7a3a"/>
    <rect x="300" y="8" width="8" height="98" fill="#050403"/>
    <rect x="290" y="12" width="4" height="84" fill="#8d642f"/>
    <rect x="36" y="38" width="38" height="50" fill="#050403"/>
    <rect x="42" y="44" width="26" height="18" fill="#d8c28a"/>
    <rect x="48" y="48" width="14" height="10" fill="#5a3920"/>
    <rect x="108" y="36" width="96" height="4" fill="#9d7a3a"/>
    <rect x="116" y="52" width="72" height="2" fill="#8d642f"/>
    <rect x="232" y="38" width="34" height="50" fill="#050403"/>
    <rect x="238" y="44" width="22" height="18" fill="#47301b"/>
  </g>
  <g opacity="0.38">
    <rect x="20" y="24" width="1" height="62" fill="#6b4626"/>
    <rect x="148" y="24" width="1" height="62" fill="#6b4626"/>
    <rect x="344" y="24" width="1" height="62" fill="#6b4626"/>
    <rect x="502" y="24" width="1" height="62" fill="#6b4626"/>
    <rect x="660" y="24" width="1" height="62" fill="#6b4626"/>
    <rect x="820" y="24" width="1" height="62" fill="#6b4626"/>
  </g>
</svg>
