<svg xmlns="http://www.w3.org/2000/svg" width="768" height="90" viewBox="0 0 768 90" shape-rendering="crispEdges">
  <rect width="768" height="90" fill="#21170f"/>
  <rect y="0" width="768" height="5" fill="#d7b35d"/>
  <rect y="4" width="768" height="2" fill="#f0d281"/>
  <rect y="34" width="768" height="5" fill="#050403"/>
  <rect y="48" width="768" height="4" fill="#9d7a3a"/>
  <rect y="68" width="768" height="4" fill="#9d7a3a"/>
  <g opacity=".75">
    <rect x="0" y="12" width="48" height="2" fill="#8d642f"/><rect x="18" y="26" width="36" height="2" fill="#4a321c"/><rect x="10" y="6" width="6" height="2" fill="#f0d281"/><rect x="56" y="8" width="6" height="20" fill="#100b07"/>
    <rect x="64" y="12" width="48" height="2" fill="#8d642f"/><rect x="82" y="26" width="36" height="2" fill="#4a321c"/><rect x="74" y="6" width="6" height="2" fill="#f0d281"/><rect x="120" y="8" width="6" height="20" fill="#100b07"/>
    <rect x="128" y="12" width="48" height="2" fill="#8d642f"/><rect x="146" y="26" width="36" height="2" fill="#4a321c"/><rect x="138" y="6" width="6" height="2" fill="#f0d281"/><rect x="184" y="8" width="6" height="20" fill="#100b07"/>
    <rect x="192" y="12" width="48" height="2" fill="#8d642f"/><rect x="210" y="26" width="36" height="2" fill="#4a321c"/><rect x="202" y="6" width="6" height="2" fill="#f0d281"/><rect x="248" y="8" width="6" height="20" fill="#100b07"/>
    <rect x="256" y="12" width="48" height="2" fill="#8d642f"/><rect x="274" y="26" width="36" height="2" fill="#4a321c"/><rect x="266" y="6" width="6" height="2" fill="#f0d281"/><rect x="312" y="8" width="6" height="20" fill="#100b07"/>
    <rect x="320" y="12" width="48" height="2" fill="#8d642f"/><rect x="338" y="26" width="36" height="2" fill="#4a321c"/><rect x="330" y="6" width="6" height="2" fill="#f0d281"/><rect x="376" y="8" width="6" height="20" fill="#100b07"/>
    <rect x="384" y="12" width="48" height="2" fill="#8d642f"/><rect x="402" y="26" width="36" height="2" fill="#4a321c"/><rect x="394" y="6" width="6" height="2" fill="#f0d281"/><rect x="440" y="8" width="6" height="20" fill="#100b07"/>
    <rect x="448" y="12" width="48" height="2" fill="#8d642f"/><rect x="466" y="26" width="36" height="2" fill="#4a321c"/><rect x="458" y="6" width="6" height="2" fill="#f0d281"/><rect x="504" y="8" width="6" height="20" fill="#100b07"/>
    <rect x="512" y="12" width="48" height="2" fill="#8d642f"/><rect x="530" y="26" width="36" height="2" fill="#4a321c"/><rect x="522" y="6" width="6" height="2" fill="#f0d281"/><rect x="568" y="8" width="6" height="20" fill="#100b07"/>
    <rect x="576" y="12" width="48" height="2" fill="#8d642f"/><rect x="594" y="26" width="36" height="2" fill="#4a321c"/><rect x="586" y="6" width="6" height="2" fill="#f0d281"/><rect x="632" y="8" width="6" height="20" fill="#100b07"/>
    <rect x="640" y="12" width="48" height="2" fill="#8d642f"/><rect x="658" y="26" width="36" height="2" fill="#4a321c"/><rect x="650" y="6" width="6" height="2" fill="#f0d281"/><rect x="696" y="8" width="6" height="20" fill="#100b07"/>
    <rect x="704" y="12" width="48" height="2" fill="#8d642f"/><rect x="722" y="26" width="36" height="2" fill="#4a321c"/><rect x="714" y="6" width="6" height="2" fill="#f0d281"/><rect x="760" y="8" width="6" height="20" fill="#100b07"/>
  </g>
  <g>
    <rect x="0" y="50" width="8" height="24" fill="#1a120a"/><rect x="2" y="52" width="2" height="18" fill="#8d642f"/>
    <rect x="44" y="50" width="8" height="24" fill="#1a120a"/><rect x="46" y="52" width="2" height="18" fill="#8d642f"/>
    <rect x="88" y="50" width="8" height="24" fill="#1a120a"/><rect x="90" y="52" width="2" height="18" fill="#8d642f"/>
    <rect x="132" y="50" width="8" height="24" fill="#1a120a"/><rect x="134" y="52" width="2" height="18" fill="#8d642f"/>
    <rect x="176" y="50" width="8" height="24" fill="#1a120a"/><rect x="178" y="52" width="2" height="18" fill="#8d642f"/>
    <rect x="220" y="50" width="8" height="24" fill="#1a120a"/><rect x="222" y="52" width="2" height="18" fill="#8d642f"/>
    <rect x="264" y="50" width="8" height="24" fill="#1a120a"/><rect x="266" y="52" width="2" height="18" fill="#8d642f"/>
    <rect x="308" y="50" width="8" height="24" fill="#1a120a"/><rect x="310" y="52" width="2" height="18" fill="#8d642f"/>
    <rect x="352" y="50" width="8" height="24" fill="#1a120a"/><rect x="354" y="52" width="2" height="18" fill="#8d642f"/>
    <rect x="396" y="50" width="8" height="24" fill="#1a120a"/><rect x="398" y="52" width="2" height="18" fill="#8d642f"/>
    <rect x="440" y="50" width="8" height="24" fill="#1a120a"/><rect x="442" y="52" width="2" height="18" fill="#8d642f"/>
    <rect x="484" y="50" width="8" height="24" fill="#1a120a"/><rect x="486" y="52" width="2" height="18" fill="#8d642f"/>
    <rect x="528" y="50" width="8" height="24" fill="#1a120a"/><rect x="530" y="52" width="2" height="18" fill="#8d642f"/>
    <rect x="572" y="50" width="8" height="24" fill="#1a120a"/><rect x="574" y="52" width="2" height="18" fill="#8d642f"/>
    <rect x="616" y="50" width="8" height="24" fill="#1a120a"/><rect x="618" y="52" width="2" height="18" fill="#8d642f"/>
    <rect x="660" y="50" width="8" height="24" fill="#1a120a"/><rect x="662" y="52" width="2" height="18" fill="#8d642f"/>
    <rect x="704" y="50" width="8" height="24" fill="#1a120a"/><rect x="706" y="52" width="2" height="18" fill="#8d642f"/>
  </g>
</svg>
