<svg xmlns="http://www.w3.org/2000/svg" width="768" height="90" viewBox="0 0 768 90" shape-rendering="crispEdges">
  <defs>
    <pattern id="wet" width="96" height="36" patternUnits="userSpaceOnUse"><rect width="96" height="36" fill="#1d1510"/><rect y="0" width="96" height="1" fill="#6e5428"/><rect y="8" width="96" height="1" fill="#0c0a08"/><rect x="12" y="5" width="42" height="2" fill="#8d642f" opacity=".55"/><rect x="58" y="15" width="30" height="2" fill="#d7b35d" opacity=".28"/><rect x="8" y="25" width="62" height="1" fill="#3d2a17"/><rect x="78" y="6" width="2" height="18" fill="#0d0906"/><rect x="82" y="6" width="1" height="16" fill="#8d642f" opacity=".45"/><rect x="30" y="12" width="2" height="2" fill="#f0d281" opacity=".5"/><rect x="44" y="17" width="2" height="2" fill="#7b5b2a"/><rect x="68" y="28" width="18" height="1" fill="#b89043" opacity=".22"/></pattern>
    <pattern id="rail" width="88" height="40" patternUnits="userSpaceOnUse"><rect x="0" y="13" width="58" height="3" fill="#6f4e25"/><rect x="2" y="18" width="42" height="2" fill="#2a1b0f"/><rect x="57" y="0" width="8" height="31" fill="#0f0a06"/><rect x="60" y="2" width="2" height="26" fill="#8d642f"/><rect x="10" y="2" width="6" height="2" fill="#f0d281" opacity=".62"/></pattern>
  </defs>
  <rect width="768" height="90" fill="#1c130c"/>
  <rect y="0" width="768" height="5" fill="#c59b47"/>
  <rect y="4" width="768" height="2" fill="#f0d281"/>
  <rect y="7" width="768" height="28" fill="url(#wet)"/>
  <rect y="34" width="768" height="7" fill="#050403"/>
  <rect y="41" width="768" height="34" fill="#17100a"/>
  <rect y="47" width="768" height="4" fill="#9d7a3a"/>
  <rect y="51" width="768" height="2" fill="#3f2b15"/>
  <rect y="67" width="768" height="4" fill="#9d7a3a"/>
  <rect y="72" width="768" height="2" fill="#120c07"/>
  <rect y="50" width="768" height="34" fill="url(#rail)" opacity=".94"/>
  <g opacity=".32"><rect x="16" y="10" width="52" height="2" fill="#e0c77e"/><rect x="118" y="16" width="78" height="1" fill="#d7b35d"/><rect x="268" y="11" width="64" height="2" fill="#f0d281"/><rect x="406" y="18" width="88" height="1" fill="#d7b35d"/><rect x="592" y="12" width="72" height="2" fill="#f0d281"/></g>
  <g opacity=".5"><rect x="0" y="82" width="768" height="2" fill="#5a3d1d"/><rect x="0" y="86" width="768" height="3" fill="#070504"/></g>
</svg>
