<svg xmlns="http://www.w3.org/2000/svg" width="42" height="58" viewBox="0 0 42 58" shape-rendering="crispEdges"><rect width="42" height="58" fill="none"/><rect x="12" y="3" width="18" height="5" fill="#050403"/><rect x="10" y="8" width="22" height="5" fill="#050403"/><rect x="15" y="13" width="11" height="6" fill="#a97b53"/><rect x="9" y="20" width="26" height="8" fill="#050403"/><rect x="11" y="28" width="23" height="10" fill="#17120e"/><rect x="13" y="38" width="19" height="10" fill="#17120e"/><rect x="16" y="27" width="11" height="4" fill="#f0d281"/><rect x="17" y="33" width="9" height="10" fill="#d7b35d"/><rect x="7" y="29" width="7" height="18" fill="#17120e"/><rect x="32" y="28" width="6" height="18" fill="#17120e"/><rect x="33" y="27" width="4" height="26" fill="#d7b35d"/><rect x="14" y="48" width="5" height="8" fill="#050403"/><rect x="26" y="48" width="5" height="8" fill="#050403"/><rect x="10" y="56" width="10" height="2" fill="#050403"/><rect x="25" y="56" width="10" height="2" fill="#050403"/></svg>