<svg xmlns="http://www.w3.org/2000/svg" width="42" height="58" viewBox="0 0 42 58" shape-rendering="crispEdges"><rect width="42" height="58" fill="none"/><rect x="14" y="3" width="14" height="5" fill="#050403"/><rect x="12" y="8" width="18" height="5" fill="#050403"/><rect x="15" y="13" width="11" height="6" fill="#a97b53"/><rect x="11" y="20" width="22" height="7" fill="#050403"/><rect x="10" y="27" width="24" height="8" fill="#5d4a2b"/><rect x="12" y="35" width="20" height="12" fill="#2c2418"/><rect x="17" y="28" width="8" height="14" fill="#d7b35d"/><rect x="6" y="29" width="9" height="18" fill="#2c2418"/><rect x="28" y="27" width="7" height="18" fill="#2c2418"/><rect x="2" y="33" width="13" height="18" fill="#d1b875"/><rect x="4" y="37" width="9" height="2" fill="#8d642f"/><rect x="4" y="43" width="8" height="2" fill="#8d642f"/><rect x="14" y="47" width="5" height="8" fill="#050403"/><rect x="25" y="47" width="5" height="8" fill="#050403"/><rect x="11" y="55" width="9" height="3" fill="#050403"/><rect x="24" y="55" width="10" height="3" fill="#050403"/></svg>