<svg xmlns="http://www.w3.org/2000/svg" width="42" height="58" viewBox="0 0 42 58" shape-rendering="crispEdges">
  <rect width="42" height="58" fill="none"/>
  <rect x="15" y="4" width="13" height="5" fill="#050403"/><rect x="13" y="9" width="17" height="5" fill="#050403"/><rect x="16" y="14" width="10" height="6" fill="#a97b53"/>
  <rect x="9" y="21" width="24" height="8" fill="#050403"/><rect x="7" y="29" width="26" height="9" fill="#4c3929"/><rect x="10" y="38" width="20" height="10" fill="#4c3929"/>
  <rect x="5" y="29" width="8" height="22" fill="#6b2f24"/><rect x="28" y="28" width="8" height="19" fill="#4c3929"/><rect x="28" y="47" width="10" height="8" fill="#6b4d31"/>
  <rect x="16" y="32" width="7" height="10" fill="#7c5a35"/><rect x="14" y="48" width="5" height="7" fill="#050403"/><rect x="25" y="48" width="5" height="7" fill="#050403"/><rect x="10" y="55" width="10" height="3" fill="#050403"/><rect x="24" y="55" width="9" height="3" fill="#050403"/>
</svg>
