<svg xmlns="http://www.w3.org/2000/svg" width="42" height="58" viewBox="0 0 42 58" shape-rendering="crispEdges"><rect width="42" height="58" fill="none"/><rect x="15" y="5" width="13" height="5" fill="#050403"/><rect x="13" y="10" width="17" height="5" fill="#050403"/><rect x="16" y="15" width="10" height="6" fill="#a97b53"/><rect x="9" y="22" width="24" height="8" fill="#050403"/><rect x="7" y="30" width="26" height="9" fill="#4c3929"/><rect x="10" y="39" width="20" height="10" fill="#4c3929"/><rect x="5" y="30" width="8" height="22" fill="#6b2f24"/><rect x="28" y="29" width="8" height="19" fill="#4c3929"/><rect x="28" y="48" width="10" height="8" fill="#6b4d31"/><rect x="16" y="33" width="7" height="10" fill="#7c5a35"/><rect x="14" y="49" width="5" height="7" fill="#050403"/><rect x="25" y="49" width="5" height="7" fill="#050403"/><rect x="10" y="56" width="10" height="2" fill="#050403"/><rect x="24" y="56" width="9" height="2" fill="#050403"/></svg>