<svg xmlns="http://www.w3.org/2000/svg" width="40" height="56" viewBox="0 0 40 56" shape-rendering="crispEdges"><rect width="40" height="56" fill="none"/><rect x="14" y="3" width="12" height="5" fill="#050403"/><rect x="12" y="8" width="16" height="5" fill="#050403"/><rect x="14" y="12" width="11" height="6" fill="#a97b53"/><rect x="16" y="10" width="10" height="3" fill="#050403"/><rect x="12" y="19" width="18" height="6" fill="#050403"/><rect x="10" y="24" width="22" height="8" fill="#12100d"/><rect x="8" y="31" width="24" height="8" fill="#12100d"/><rect x="10" y="39" width="19" height="7" fill="#12100d"/><rect x="14" y="25" width="10" height="3" fill="#6b5a35"/><rect x="18" y="32" width="6" height="8" fill="#d7b35d"/><rect x="26" y="31" width="4" height="3" fill="#dd5b3c"/><rect x="13" y="46" width="5" height="7" fill="#050403"/><rect x="23" y="46" width="5" height="7" fill="#050403"/><rect x="10" y="53" width="9" height="3" fill="#050403"/><rect x="22" y="53" width="10" height="3" fill="#050403"/><rect x="6" y="25" width="5" height="18" fill="#2a241d"/><rect x="29" y="24" width="5" height="17" fill="#2a241d"/><rect x="5" y="41" width="7" height="4" fill="#050403"/><rect x="29" y="40" width="7" height="4" fill="#050403"/></svg>