<svg xmlns="http://www.w3.org/2000/svg" width="40" height="56" viewBox="0 0 40 56" shape-rendering="crispEdges"><rect width="40" height="56" fill="none"/><rect x="15" y="2" width="12" height="5" fill="#050403"/><rect x="13" y="7" width="16" height="5" fill="#050403"/><rect x="15" y="11" width="11" height="6" fill="#a97b53"/><rect x="13" y="18" width="18" height="6" fill="#050403"/><rect x="10" y="23" width="23" height="15" fill="#12100d"/><rect x="11" y="38" width="18" height="7" fill="#12100d"/><rect x="15" y="24" width="10" height="3" fill="#6b5a35"/><rect x="19" y="31" width="6" height="8" fill="#d7b35d"/><rect x="27" y="30" width="4" height="3" fill="#dd5b3c"/><rect x="12" y="45" width="5" height="7" fill="#050403"/><rect x="26" y="44" width="5" height="8" fill="#050403"/><rect x="8" y="52" width="11" height="3" fill="#050403"/><rect x="25" y="52" width="12" height="3" fill="#050403"/><rect x="6" y="24" width="5" height="18" fill="#2a241d"/><rect x="31" y="23" width="5" height="16" fill="#2a241d"/></svg>