<svg xmlns="http://www.w3.org/2000/svg" width="40" height="56" viewBox="0 0 40 56" shape-rendering="crispEdges"><rect width="40" height="56" fill="none"/><rect x="14" y="4" width="12" height="5" fill="#050403"/><rect x="12" y="9" width="16" height="5" fill="#050403"/><rect x="14" y="13" width="11" height="6" fill="#a97b53"/><rect x="12" y="20" width="18" height="6" fill="#050403"/><rect x="9" y="25" width="24" height="14" fill="#12100d"/><rect x="11" y="39" width="19" height="7" fill="#12100d"/><rect x="18" y="32" width="6" height="8" fill="#d7b35d"/><rect x="26" y="31" width="4" height="3" fill="#dd5b3c"/><rect x="13" y="46" width="5" height="7" fill="#050403"/><rect x="24" y="46" width="5" height="7" fill="#050403"/><rect x="9" y="53" width="10" height="3" fill="#050403"/><rect x="22" y="53" width="11" height="3" fill="#050403"/><rect x="4" y="27" width="7" height="12" fill="#2a241d"/><rect x="31" y="26" width="7" height="12" fill="#2a241d"/></svg>