<svg xmlns="http://www.w3.org/2000/svg" width="40" height="56" viewBox="0 0 40 56" shape-rendering="crispEdges">
  <rect width="40" height="56" fill="none"/>
  <rect x="14" y="2" width="12" height="5" fill="#050403"/><rect x="12" y="7" width="16" height="5" fill="#050403"/><rect x="14" y="11" width="11" height="6" fill="#a97b53"/>
  <rect x="12" y="18" width="18" height="6" fill="#050403"/><rect x="9" y="23" width="22" height="8" fill="#12100d"/><rect x="7" y="30" width="24" height="8" fill="#12100d"/><rect x="8" y="38" width="20" height="7" fill="#12100d"/>
  <rect x="14" y="24" width="10" height="3" fill="#6b5a35"/><rect x="18" y="31" width="6" height="8" fill="#d7b35d"/><rect x="26" y="30" width="4" height="3" fill="#dd5b3c"/>
  <rect x="10" y="45" width="5" height="7" fill="#050403"/><rect x="23" y="44" width="5" height="8" fill="#050403"/><rect x="6" y="52" width="10" height="3" fill="#050403"/><rect x="22" y="52" width="12" height="3" fill="#050403"/>
  <rect x="5" y="24" width="5" height="18" fill="#2a241d"/><rect x="30" y="23" width="5" height="16" fill="#2a241d"/><rect x="4" y="40" width="7" height="4" fill="#050403"/>
</svg>
