<svg xmlns="http://www.w3.org/2000/svg" width="40" height="56" viewBox="0 0 40 56" shape-rendering="crispEdges"><rect width="40" height="56" fill="none"/><rect x="14" y="1" width="12" height="5" fill="#050403"/><rect x="12" y="6" width="16" height="5" fill="#050403"/><rect x="14" y="10" width="11" height="6" fill="#a97b53"/><rect x="12" y="17" width="18" height="6" fill="#050403"/><rect x="8" y="22" width="25" height="15" fill="#12100d"/><rect x="10" y="37" width="20" height="8" fill="#12100d"/><rect x="18" y="29" width="6" height="8" fill="#d7b35d"/><rect x="26" y="28" width="4" height="3" fill="#dd5b3c"/><rect x="9" y="43" width="6" height="8" fill="#050403"/><rect x="27" y="42" width="6" height="8" fill="#050403"/><rect x="5" y="49" width="11" height="3" fill="#050403"/><rect x="26" y="49" width="11" height="3" fill="#050403"/><rect x="5" y="20" width="5" height="18" fill="#2a241d"/><rect x="32" y="21" width="5" height="17" fill="#2a241d"/></svg>