<svg xmlns="http://www.w3.org/2000/svg" width="184" height="118" viewBox="0 0 184 118" shape-rendering="crispEdges">
  <rect width="184" height="118" fill="none"/>
  <rect x="0" y="14" width="146" height="104" fill="#050403"/>
  <rect x="8" y="22" width="130" height="88" fill="#463019"/>
  <rect x="16" y="38" width="110" height="6" fill="#d7b35d"/>
  <rect x="25" y="62" width="86" height="4" fill="#8d642f"/>
  <rect x="38" y="78" width="58" height="4" fill="#9d7a3a"/>
  <rect x="13" y="28" width="8" height="72" fill="#302114"/>
  <rect x="119" y="28" width="8" height="72" fill="#302114"/>
  <rect x="126" y="18" width="8" height="84" fill="#050403"/>
  <rect x="132" y="18" width="6" height="84" fill="#d7b35d"/>
  <path d="M132 18 L184 68" stroke="#d7b35d" stroke-width="4" fill="none"/>
  <path d="M134 22 L178 102" stroke="#050403" stroke-width="4" fill="none"/>
  <rect x="168" y="65" width="16" height="6" fill="#8d642f"/>
  <rect x="23" y="89" width="28" height="5" fill="#050403"/>
  <rect x="75" y="89" width="34" height="5" fill="#050403"/>
</svg>
